<svg width="286" height="50" viewBox="0 0 286 50" fill="none" xmlns="http://www.w3.org/2000/svg">
<path d="M77.8963 36V14.1818H82.5092V32.1967H91.8629V36H77.8963ZM102.29 36.3196C100.607 36.3196 99.1578 35.9787 97.9434 35.2969C96.736 34.608 95.8056 33.6349 95.1522 32.3778C94.4988 31.1136 94.1721 29.6186 94.1721 27.8928C94.1721 26.2095 94.4988 24.7322 95.1522 23.4609C95.8056 22.1896 96.7253 21.1989 97.9114 20.4886C99.1046 19.7784 100.504 19.4233 102.109 19.4233C103.188 19.4233 104.193 19.5973 105.124 19.9453C106.061 20.2862 106.878 20.8011 107.574 21.4901C108.277 22.179 108.824 23.0455 109.215 24.0895C109.605 25.1264 109.801 26.3409 109.801 27.733V28.9794H95.9831V26.1669H105.529C105.529 25.5135 105.387 24.9347 105.102 24.4304C104.818 23.9261 104.424 23.532 103.92 23.2479C103.423 22.9567 102.844 22.8111 102.183 22.8111C101.494 22.8111 100.884 22.9709 100.351 23.2905C99.8255 23.603 99.4135 24.0256 99.1152 24.5582C98.8169 25.0838 98.6642 25.6697 98.6571 26.3161V28.9901C98.6571 29.7997 98.8063 30.4993 99.1046 31.0888C99.41 31.6783 99.8397 32.1328 100.394 32.4524C100.948 32.772 101.605 32.9318 102.365 32.9318C102.869 32.9318 103.33 32.8608 103.749 32.7188C104.169 32.5767 104.527 32.3636 104.825 32.0795C105.124 31.7955 105.351 31.4474 105.507 31.0355L109.705 31.3125C109.492 32.321 109.055 33.2017 108.394 33.9545C107.741 34.7003 106.896 35.2827 105.859 35.7017C104.829 36.1136 103.639 36.3196 102.29 36.3196ZM117.428 36.3089C116.384 36.3089 115.454 36.1278 114.637 35.7656C113.82 35.3963 113.174 34.853 112.698 34.1357C112.23 33.4112 111.995 32.5092 111.995 31.4297C111.995 30.5206 112.162 29.7571 112.496 29.1392C112.83 28.5213 113.284 28.0241 113.86 27.6477C114.435 27.2713 115.088 26.9872 115.82 26.7955C116.558 26.6037 117.333 26.4688 118.142 26.3906C119.094 26.2912 119.861 26.1989 120.443 26.1136C121.026 26.0213 121.448 25.8864 121.711 25.7088C121.974 25.5312 122.105 25.2685 122.105 24.9205V24.8565C122.105 24.1818 121.892 23.6598 121.466 23.2905C121.047 22.9212 120.45 22.7365 119.676 22.7365C118.86 22.7365 118.21 22.9176 117.727 23.2798C117.244 23.6349 116.924 24.0824 116.768 24.6222L112.57 24.2812C112.784 23.2869 113.203 22.4276 113.828 21.7031C114.453 20.9716 115.259 20.4105 116.246 20.0199C117.24 19.6222 118.391 19.4233 119.698 19.4233C120.607 19.4233 121.477 19.5298 122.308 19.7429C123.146 19.956 123.888 20.2862 124.534 20.7337C125.188 21.1811 125.703 21.7564 126.079 22.4595C126.455 23.1555 126.644 23.9901 126.644 24.9631V36H122.34V33.7308H122.212C121.949 34.2422 121.597 34.6932 121.157 35.0838C120.717 35.4673 120.188 35.7692 119.57 35.9893C118.952 36.2024 118.238 36.3089 117.428 36.3089ZM118.728 33.1768C119.396 33.1768 119.985 33.0455 120.497 32.7827C121.008 32.5128 121.409 32.1506 121.7 31.696C121.992 31.2415 122.137 30.7266 122.137 30.1513V28.4148C121.995 28.5071 121.8 28.5923 121.551 28.6705C121.31 28.7415 121.036 28.8089 120.731 28.8729C120.426 28.9297 120.12 28.983 119.815 29.0327C119.509 29.0753 119.232 29.1143 118.984 29.1499C118.451 29.228 117.986 29.3523 117.588 29.5227C117.191 29.6932 116.882 29.924 116.661 30.2152C116.441 30.4993 116.331 30.8544 116.331 31.2805C116.331 31.8984 116.555 32.3707 117.002 32.6974C117.457 33.017 118.032 33.1768 118.728 33.1768ZM136.194 36.2663C134.952 36.2663 133.826 35.9467 132.817 35.3075C131.816 34.6612 131.02 33.7131 130.431 32.4631C129.849 31.206 129.557 29.6648 129.557 27.8395C129.557 25.9645 129.859 24.4055 130.463 23.1626C131.067 21.9126 131.869 20.9787 132.871 20.3608C133.879 19.7358 134.983 19.4233 136.184 19.4233C137.1 19.4233 137.863 19.5795 138.474 19.892C139.092 20.1974 139.589 20.581 139.966 21.0426C140.349 21.4972 140.64 21.9446 140.839 22.3849H140.978V14.1818H145.506V36H141.031V33.3793H140.839C140.626 33.8338 140.324 34.2848 139.934 34.7322C139.55 35.1726 139.05 35.5384 138.432 35.8295C137.821 36.1207 137.075 36.2663 136.194 36.2663ZM137.633 32.6548C138.364 32.6548 138.982 32.456 139.486 32.0582C139.998 31.6534 140.388 31.0888 140.658 30.3643C140.935 29.6399 141.074 28.7912 141.074 27.8182C141.074 26.8452 140.939 26 140.669 25.2827C140.399 24.5653 140.008 24.0114 139.497 23.6207C138.986 23.2301 138.364 23.0348 137.633 23.0348C136.887 23.0348 136.258 23.2372 135.747 23.642C135.236 24.0469 134.849 24.608 134.586 25.3253C134.323 26.0426 134.192 26.8736 134.192 27.8182C134.192 28.7699 134.323 29.6115 134.586 30.343C134.856 31.0675 135.243 31.6357 135.747 32.0476C136.258 32.4524 136.887 32.6548 137.633 32.6548ZM255.044 36.277C254.341 36.277 253.737 36.0284 253.233 35.5312C252.736 35.027 252.487 34.4233 252.487 33.7202C252.487 33.0241 252.736 32.4276 253.233 31.9304C253.737 31.4332 254.341 31.1847 255.044 31.1847C255.726 31.1847 256.322 31.4332 256.834 31.9304C257.345 32.4276 257.601 33.0241 257.601 33.7202C257.601 34.1889 257.48 34.6186 257.238 35.0092C257.004 35.3928 256.695 35.7017 256.312 35.9361C255.928 36.1634 255.506 36.277 255.044 36.277ZM265.993 36.3089C264.949 36.3089 264.018 36.1278 263.202 35.7656C262.385 35.3963 261.739 34.853 261.263 34.1357C260.794 33.4112 260.56 32.5092 260.56 31.4297C260.56 30.5206 260.727 29.7571 261.06 29.1392C261.394 28.5213 261.849 28.0241 262.424 27.6477C262.999 27.2713 263.653 26.9872 264.384 26.7955C265.123 26.6037 265.897 26.4688 266.707 26.3906C267.658 26.2912 268.425 26.1989 269.008 26.1136C269.59 26.0213 270.013 25.8864 270.276 25.7088C270.538 25.5312 270.67 25.2685 270.67 24.9205V24.8565C270.67 24.1818 270.457 23.6598 270.031 23.2905C269.612 22.9212 269.015 22.7365 268.241 22.7365C267.424 22.7365 266.774 22.9176 266.291 23.2798C265.808 23.6349 265.489 24.0824 265.332 24.6222L261.135 24.2812C261.348 23.2869 261.767 22.4276 262.392 21.7031C263.017 20.9716 263.823 20.4105 264.81 20.0199C265.805 19.6222 266.955 19.4233 268.262 19.4233C269.171 19.4233 270.041 19.5298 270.872 19.7429C271.71 19.956 272.452 20.2862 273.099 20.7337C273.752 21.1811 274.267 21.7564 274.643 22.4595C275.02 23.1555 275.208 23.9901 275.208 24.9631V36H270.904V33.7308H270.776C270.513 34.2422 270.162 34.6932 269.722 35.0838C269.281 35.4673 268.752 35.7692 268.134 35.9893C267.516 36.2024 266.803 36.3089 265.993 36.3089ZM267.293 33.1768C267.96 33.1768 268.55 33.0455 269.061 32.7827C269.572 32.5128 269.974 32.1506 270.265 31.696C270.556 31.2415 270.702 30.7266 270.702 30.1513V28.4148C270.56 28.5071 270.364 28.5923 270.116 28.6705C269.874 28.7415 269.601 28.8089 269.295 28.8729C268.99 28.9297 268.685 28.983 268.379 29.0327C268.074 29.0753 267.797 29.1143 267.548 29.1499C267.016 29.228 266.55 29.3523 266.153 29.5227C265.755 29.6932 265.446 29.924 265.226 30.2152C265.006 30.4993 264.896 30.8544 264.896 31.2805C264.896 31.8984 265.119 32.3707 265.567 32.6974C266.021 33.017 266.597 33.1768 267.293 33.1768ZM278.729 36V19.6364H283.267V36H278.729ZM281.009 17.527C280.334 17.527 279.755 17.3033 279.272 16.8558C278.797 16.4013 278.559 15.858 278.559 15.2259C278.559 14.6009 278.797 14.0646 279.272 13.6172C279.755 13.1626 280.334 12.9354 281.009 12.9354C281.684 12.9354 282.259 13.1626 282.735 13.6172C283.218 14.0646 283.459 14.6009 283.459 15.2259C283.459 15.858 283.218 16.4013 282.735 16.8558C282.259 17.3033 281.684 17.527 281.009 17.527Z" fill="black"/>
<path d="M168.573 21.8203H163.907C163.821 21.2166 163.647 20.6804 163.385 20.2116C163.122 19.7358 162.784 19.331 162.373 18.9972C161.961 18.6634 161.485 18.4077 160.945 18.2301C160.412 18.0526 159.833 17.9638 159.208 17.9638C158.079 17.9638 157.096 18.2443 156.257 18.8054C155.419 19.3594 154.77 20.169 154.308 21.2344C153.846 22.2926 153.615 23.5781 153.615 25.0909C153.615 26.6463 153.846 27.9531 154.308 29.0114C154.777 30.0696 155.43 30.8686 156.268 31.4084C157.106 31.9482 158.076 32.218 159.176 32.218C159.794 32.218 160.366 32.1364 160.892 31.973C161.424 31.8097 161.897 31.5717 162.309 31.2592C162.721 30.9396 163.061 30.5526 163.331 30.098C163.608 29.6435 163.8 29.125 163.907 28.5426L168.573 28.5639C168.452 29.5653 168.15 30.5312 167.667 31.4616C167.191 32.3849 166.549 33.2124 165.739 33.9439C164.936 34.6683 163.978 35.2436 162.863 35.6697C161.755 36.0888 160.501 36.2983 159.102 36.2983C157.156 36.2983 155.416 35.858 153.882 34.9773C152.355 34.0966 151.147 32.8217 150.26 31.1527C149.379 29.4837 148.939 27.4631 148.939 25.0909C148.939 22.7116 149.386 20.6875 150.281 19.0185C151.176 17.3494 152.39 16.0781 153.924 15.2045C155.458 14.3239 157.184 13.8835 159.102 13.8835C160.366 13.8835 161.538 14.0611 162.618 14.4162C163.704 14.7713 164.667 15.2898 165.505 15.9716C166.343 16.6463 167.025 17.4737 167.55 18.4538C168.083 19.4339 168.424 20.5561 168.573 21.8203ZM171.795 36V19.6364H176.195V22.4915H176.366C176.664 21.4759 177.165 20.7088 177.868 20.1903C178.571 19.6648 179.381 19.402 180.297 19.402C180.524 19.402 180.769 19.4162 181.032 19.4446C181.295 19.473 181.526 19.5121 181.724 19.5618V23.5888C181.511 23.5249 181.217 23.468 180.84 23.4183C180.464 23.3686 180.119 23.3438 179.807 23.3438C179.139 23.3438 178.543 23.4893 178.017 23.7805C177.499 24.0646 177.087 24.4624 176.781 24.9737C176.483 25.4851 176.334 26.0746 176.334 26.7422V36H171.795ZM188.268 36.3089C187.224 36.3089 186.294 36.1278 185.477 35.7656C184.66 35.3963 184.014 34.853 183.538 34.1357C183.069 33.4112 182.835 32.5092 182.835 31.4297C182.835 30.5206 183.002 29.7571 183.336 29.1392C183.67 28.5213 184.124 28.0241 184.699 27.6477C185.275 27.2713 185.928 26.9872 186.66 26.7955C187.398 26.6037 188.172 26.4688 188.982 26.3906C189.934 26.2912 190.701 26.1989 191.283 26.1136C191.866 26.0213 192.288 25.8864 192.551 25.7088C192.814 25.5312 192.945 25.2685 192.945 24.9205V24.8565C192.945 24.1818 192.732 23.6598 192.306 23.2905C191.887 22.9212 191.29 22.7365 190.516 22.7365C189.699 22.7365 189.05 22.9176 188.567 23.2798C188.084 23.6349 187.764 24.0824 187.608 24.6222L183.41 24.2812C183.623 23.2869 184.042 22.4276 184.667 21.7031C185.292 20.9716 186.099 20.4105 187.086 20.0199C188.08 19.6222 189.231 19.4233 190.537 19.4233C191.447 19.4233 192.317 19.5298 193.148 19.7429C193.986 19.956 194.728 20.2862 195.374 20.7337C196.028 21.1811 196.542 21.7564 196.919 22.4595C197.295 23.1555 197.483 23.9901 197.483 24.9631V36H193.18V33.7308H193.052C192.789 34.2422 192.437 34.6932 191.997 35.0838C191.557 35.4673 191.028 35.7692 190.41 35.9893C189.792 36.2024 189.078 36.3089 188.268 36.3089ZM189.568 33.1768C190.236 33.1768 190.825 33.0455 191.336 32.7827C191.848 32.5128 192.249 32.1506 192.54 31.696C192.831 31.2415 192.977 30.7266 192.977 30.1513V28.4148C192.835 28.5071 192.64 28.5923 192.391 28.6705C192.15 28.7415 191.876 28.8089 191.571 28.8729C191.265 28.9297 190.96 28.983 190.655 29.0327C190.349 29.0753 190.072 29.1143 189.824 29.1499C189.291 29.228 188.826 29.3523 188.428 29.5227C188.03 29.6932 187.721 29.924 187.501 30.2152C187.281 30.4993 187.171 30.8544 187.171 31.2805C187.171 31.8984 187.395 32.3707 187.842 32.6974C188.297 33.017 188.872 33.1768 189.568 33.1768ZM209.804 19.6364V23.0455H199.705V19.6364H209.804ZM202.017 36V18.4538C202.017 17.2678 202.247 16.2841 202.709 15.5028C203.178 14.7216 203.817 14.1357 204.627 13.745C205.436 13.3544 206.356 13.1591 207.386 13.1591C208.082 13.1591 208.718 13.2124 209.293 13.3189C209.875 13.4254 210.308 13.5213 210.593 13.6065L209.783 17.0156C209.605 16.9588 209.385 16.9055 209.122 16.8558C208.867 16.8061 208.604 16.7812 208.334 16.7812C207.666 16.7812 207.201 16.9375 206.938 17.25C206.676 17.5554 206.544 17.9851 206.544 18.5391V36H202.017ZM221.281 19.6364V23.0455H211.426V19.6364H221.281ZM213.663 15.7159H218.202V30.9716C218.202 31.3906 218.266 31.7173 218.393 31.9517C218.521 32.179 218.699 32.3388 218.926 32.4311C219.161 32.5234 219.43 32.5696 219.736 32.5696C219.949 32.5696 220.162 32.5518 220.375 32.5163C220.588 32.4737 220.751 32.4418 220.865 32.4205L221.579 35.7976C221.352 35.8686 221.032 35.9503 220.62 36.0426C220.208 36.142 219.707 36.2024 219.118 36.2237C218.024 36.2663 217.065 36.1207 216.241 35.7869C215.425 35.4531 214.789 34.9347 214.335 34.2315C213.88 33.5284 213.656 32.6406 213.663 31.5682V15.7159ZM231.518 36.3196C229.835 36.3196 228.386 35.9787 227.172 35.2969C225.964 34.608 225.034 33.6349 224.381 32.3778C223.727 31.1136 223.401 29.6186 223.401 27.8928C223.401 26.2095 223.727 24.7322 224.381 23.4609C225.034 22.1896 225.954 21.1989 227.14 20.4886C228.333 19.7784 229.732 19.4233 231.337 19.4233C232.417 19.4233 233.422 19.5973 234.352 19.9453C235.29 20.2862 236.107 20.8011 236.803 21.4901C237.506 22.179 238.053 23.0455 238.443 24.0895C238.834 25.1264 239.029 26.3409 239.029 27.733V28.9794H225.212V26.1669H234.757C234.757 25.5135 234.615 24.9347 234.331 24.4304C234.047 23.9261 233.653 23.532 233.148 23.2479C232.651 22.9567 232.072 22.8111 231.412 22.8111C230.723 22.8111 230.112 22.9709 229.58 23.2905C229.054 23.603 228.642 24.0256 228.344 24.5582C228.045 25.0838 227.893 25.6697 227.886 26.3161V28.9901C227.886 29.7997 228.035 30.4993 228.333 31.0888C228.638 31.6783 229.068 32.1328 229.622 32.4524C230.176 32.772 230.833 32.9318 231.593 32.9318C232.097 32.9318 232.559 32.8608 232.978 32.7188C233.397 32.5767 233.756 32.3636 234.054 32.0795C234.352 31.7955 234.58 31.4474 234.736 31.0355L238.933 31.3125C238.72 32.321 238.283 33.2017 237.623 33.9545C236.969 34.7003 236.124 35.2827 235.087 35.7017C234.058 36.1136 232.868 36.3196 231.518 36.3196ZM241.991 36V19.6364H246.391V22.4915H246.561C246.859 21.4759 247.36 20.7088 248.063 20.1903C248.766 19.6648 249.576 19.402 250.492 19.402C250.719 19.402 250.964 19.4162 251.227 19.4446C251.49 19.473 251.721 19.5121 251.92 19.5618V23.5888C251.707 23.5249 251.412 23.468 251.036 23.4183C250.659 23.3686 250.315 23.3438 250.002 23.3438C249.335 23.3438 248.738 23.4893 248.212 23.7805C247.694 24.0646 247.282 24.4624 246.977 24.9737C246.678 25.4851 246.529 26.0746 246.529 26.7422V36H241.991Z" fill="#3056D3"/>
<circle cx="25" cy="25" r="25" fill="#3056D3"/>
<circle cx="13" cy="13" r="6" fill="white"/>
<circle cx="13" cy="25" r="6" fill="white"/>
<circle cx="13" cy="37" r="6" fill="white"/>
<circle cx="25" cy="37" r="6" fill="white"/>
<circle cx="37" cy="37" r="6" fill="white"/>
</svg>
